# xmcd
#
# Track frame offsets:
#	150
#	16060
#	50422
#	75129
#	89752
#	121206
#	139924
#	156032
#	176307
#	189498
#
# Disc length: 2770 seconds
#
# Revision: 0
# Processed by: cddbd v1.5.2PL0 Copyright (c) Steve Scherf et al.
# Submitted via: EasyCDDAExtractor 11.0.2.1
#
DISCID=700ad00a
DTITLE=Steve Reeves - Road to Nineva
DYEAR=2007
DGENRE=Christian and Gospel
TTITLE0=The Way That My Love Prays
TTITLE1=The Ballad Of Miss Lilly
TTITLE2=Miracles Still Happen
TTITLE3=The Master's Arms
TTITLE4=Child Of Cheam
TTITLE5=Bearers Of The Promise
TTITLE6=Shining Through
TTITLE7=At Last
TTITLE8=A Prayer For Aiden
TTITLE9=I Will Sing
EXTD=
EXTT0=
EXTT1=
EXTT2=
EXTT3=
EXTT4=
EXTT5=
EXTT6=
EXTT7=
EXTT8=
EXTT9=
PLAYORDER=
